<svg width="26" height="26" viewBox="0 0 26 26" fill="none" xmlns="http://www.w3.org/2000/svg">
<path d="M13 0.53833C6.4 0.53833 1 5.93833 1 12.5383C1 19.1383 6.4 24.5383 13 24.5383C19.6 24.5383 25 19.1383 25 12.5383C25 5.93833 19.6 0.53833 13 0.53833Z" fill="#FEDF01"/>
<path d="M13 0.0383301C6.12386 0.0383301 0.5 5.66219 0.5 12.5383H1.5C1.5 6.21447 6.67614 1.03833 13 1.03833V0.0383301ZM0.5 12.5383C0.5 19.4145 6.12386 25.0383 13 25.0383V24.0383C6.67614 24.0383 1.5 18.8622 1.5 12.5383H0.5ZM13 25.0383C19.8761 25.0383 25.5 19.4145 25.5 12.5383H24.5C24.5 18.8622 19.3239 24.0383 13 24.0383V25.0383ZM25.5 12.5383C25.5 5.66219 19.8761 0.0383301 13 0.0383301V1.03833C19.3239 1.03833 24.5 6.21447 24.5 12.5383H25.5Z" fill="#FEDF01"/>
<path d="M12 7.18453C12 6.76914 12.5 6.35376 13 6.35376C13.5 6.35376 14 6.76914 14 7.18453V14.4538C14 14.8691 13.5 15.2845 13 15.2845C12.5 15.2845 12 14.8691 12 14.4538V7.18453H12Z" fill="#0051A5"/>
<path d="M13.0002 19.8536C12.3002 19.8536 11.7002 19.2305 11.7002 18.5036C11.7002 17.7766 12.3002 17.1536 13.0002 17.1536C13.7002 17.1536 14.3002 17.7766 14.3002 18.5036C14.3002 19.2305 13.7002 19.8536 13.0002 19.8536Z" fill="#0051A5"/>
</svg>
