<svg width="60" height="93" xmlns="http://www.w3.org/2000/svg"><g fill="none" fill-rule="evenodd"><path d="M.968 17.647c0 37.743 15.079 47.605 28.6 56.545 13.52-8.94 28.602-18.802 28.602-56.545L29.568 0 .968 17.647zM45.374 87.337c0 2.82-7.077 5.108-15.806 5.108-8.728 0-15.804-2.287-15.804-5.108 0-2.822 7.076-5.109 15.804-5.109 8.73 0 15.806 2.288 15.806 5.109" fill="#E6E6E6"/><path d="M29.569 5.414l24.326 15.012c0 32.103-12.826 40.493-24.326 48.096V5.414z" fill="#91DDF8"/><path d="M29.569 5.414L5.242 20.426c0 32.103 12.826 40.493 24.327 48.096V5.414z" fill="#009DD6"/><path d="M53.752 34.07c0 3.834-2.756 7.455-6.159 7.455-3.401 0-6.159-3.621-6.159-7.454 0-3.834 2.758-6.427 6.16-6.427 3.4 0 6.158 2.593 6.158 6.427M53.224 42.166c-2.313 1.662-3.098 2.306-5.508 2.306-2.453 0-2.915-.467-5.565-2.306-3.616 2.276-5.076 5.513-6.045 10.319 0 0 3.657 3.407 11.487 3.407s11.515-3.509 11.515-3.509c-.922-4.693-2.357-7.919-5.884-10.217" fill="#7849B8"/></g></svg>